<?xml version="1.0" encoding="UTF-8" standalone="no"?>
<svg width="16px" height="16px" viewBox="0 0 16 16" version="1.1" xmlns="http://www.w3.org/2000/svg" xmlns:xlink="http://www.w3.org/1999/xlink" xmlns:sketch="http://www.bohemiancoding.com/sketch/ns">
    <!-- Generator: Sketch 3.1.1 (8761) - http://www.bohemiancoding.com/sketch -->
    <title>icon-filter</title>
    <desc>Created with Sketch.</desc>
    <defs></defs>
    <g id="Page-1" stroke="none" stroke-width="1" fill="none" fill-rule="evenodd" sketch:type="MSPage">
        <g id="Group-4" sketch:type="MSLayerGroup">
            <rect id="Rectangle-74" fill="#FFFFFF" sketch:type="MSShapeGroup" transform="translate(3.500000, 8.000000) scale(-1, 1) translate(-3.500000, -8.000000) " x="3" y="0" width="1" height="16" rx="1"></rect>
            <rect id="Rectangle-75" fill="#FFFFFF" sketch:type="MSShapeGroup" transform="translate(12.500000, 8.000000) scale(-1, 1) translate(-12.500000, -8.000000) " x="12" y="0" width="1" height="16" rx="1"></rect>
            <path d="M6.5,5.5 C6.5,3.84314575 5.15685425,2.5 3.5,2.5 C1.84314575,2.5 0.5,3.84314575 0.5,5.5 C0.5,7.15685425 1.84314575,8.5 3.5,8.5 C5.15685425,8.5 6.5,7.15685425 6.5,5.5 Z M5,5.5 C5,4.67157288 4.32842712,4 3.5,4 C2.67157288,4 2,4.67157288 2,5.5 C2,6.32842712 2.67157288,7 3.5,7 C4.32842712,7 5,6.32842712 5,5.5 Z" id="Oval-29" fill="#FFFFFF" sketch:type="MSShapeGroup"></path>
            <circle id="Oval-30" fill="#000000" sketch:type="MSShapeGroup" cx="3.5" cy="5.5" r="1.5"></circle>
            <path d="M15.5,10.5 C15.5,8.84314575 14.1568542,7.5 12.5,7.5 C10.8431458,7.5 9.5,8.84314575 9.5,10.5 C9.5,12.1568542 10.8431458,13.5 12.5,13.5 C14.1568542,13.5 15.5,12.1568542 15.5,10.5 Z M14,10.5 C14,9.67157288 13.3284271,9 12.5,9 C11.6715729,9 11,9.67157288 11,10.5 C11,11.3284271 11.6715729,12 12.5,12 C13.3284271,12 14,11.3284271 14,10.5 Z" id="Oval-32" fill="#FFFFFF" sketch:type="MSShapeGroup"></path>
            <circle id="Oval-31" fill="#000000" sketch:type="MSShapeGroup" cx="12.5" cy="10.5" r="1.5"></circle>
        </g>
    </g>
</svg>