<?xml version="1.0" encoding="UTF-8" standalone="no"?>
<svg width="59px" height="37px" viewBox="0 0 59 37" version="1.1" xmlns="http://www.w3.org/2000/svg" xmlns:xlink="http://www.w3.org/1999/xlink" xmlns:sketch="http://www.bohemiancoding.com/sketch/ns">
    <!-- Generator: Sketch 3.1.1 (8761) - http://www.bohemiancoding.com/sketch -->
    <title>logo</title>
    <desc>Created with Sketch.</desc>
    <defs></defs>
    <g id="Page-1" stroke="none" stroke-width="1" fill="none" fill-rule="evenodd" sketch:type="MSPage">
        <path d="M47.564,13.06 C46.282,13.06 45.056,13.276 43.904,13.664 C43.012,11.69 41.97,9.376 40.75,6.66 L41.532,4.52 L44.204,4.474 L44.204,2.234 L34.138,2.234 C33.256,3.44 34.492,3.436 38.95,4.424 L38.172,6.612 L37.172,9.028 L31.544,24.144 L17.706,9.062 L18.284,6.612 C19.62,1.932 18.864,2.274 24.894,2.284 L24.894,0 C16.592,0.08 18.03,-0.854 13.586,13.446 C12.906,13.32 12.204,13.248 11.486,13.248 C5.182,13.248 0.048,18.382 0.048,24.686 C0.048,30.994 5.182,36.13 11.486,36.13 C17.794,36.13 22.928,30.994 22.928,24.686 C22.928,19.968 20.05,15.906 15.964,14.162 C16.212,13.378 16.478,12.544 16.768,11.65 C33.5,29.302 27.224,26.44 36.228,26.796 L36.356,26.796 C37.418,32.008 42.04,35.938 47.564,35.938 C53.868,35.938 59,30.808 59,24.502 C59,18.192 53.868,13.06 47.564,13.06 L47.564,13.06 Z M20.25,24.686 C20.25,29.522 16.318,33.45 11.488,33.45 C6.658,33.45 2.726,29.522 2.726,24.686 C2.726,19.858 6.656,15.926 11.486,15.926 C11.924,15.926 12.352,15.96 12.772,16.02 C9.978,24.822 10.314,23.82 10.298,24.564 C10.282,25.188 10.786,25.684 11.424,25.73 C12.564,25.612 12.306,25.804 15.152,16.732 C18.158,18.12 20.25,21.162 20.25,24.686 L20.25,24.686 Z M36.122,24.462 L33.996,24.454 L39.516,9.958 L41.66,14.706 C38.356,16.702 36.138,20.326 36.122,24.462 L36.122,24.462 Z M38.802,24.466 C38.81,21.414 40.392,18.728 42.77,17.168 L46.074,24.49 L38.802,24.466 L38.802,24.466 Z M47.564,33.264 C43.52,33.264 40.11,30.514 39.102,26.784 C48.224,26.796 49.036,27.26 49.164,25.678 C49.154,25.216 48.982,24.9 45.012,16.12 C45.818,15.872 46.672,15.736 47.564,15.736 C52.392,15.736 56.32,19.666 56.32,24.502 C56.32,29.33 52.392,33.264 47.564,33.264 L47.564,33.264 Z" id="Imported-Layers-2" fill="#FFFFFF" sketch:type="MSShapeGroup" transform="translate(29.524000, 18.065000) scale(-1, 1) translate(-29.524000, -18.065000) "></path>
    </g>
</svg>