<?xml version="1.0" encoding="UTF-8" standalone="no"?>
<svg width="5000px" height="3427px" viewBox="0 0 5000 3427" version="1.1" xmlns="http://www.w3.org/2000/svg" xmlns:xlink="http://www.w3.org/1999/xlink" xmlns:sketch="http://www.bohemiancoding.com/sketch/ns">
    <!-- Generator: Sketch 3.1.1 (8761) - http://www.bohemiancoding.com/sketch -->
    <title>bg-loader</title>
    <desc>Created with Sketch.</desc>
    <defs></defs>
    <g id="Page-1" stroke="none" stroke-width="1" fill="none" fill-rule="evenodd" sketch:type="MSPage">
        <rect id="Rectangle-1" stroke="#979797" fill="#333333" sketch:type="MSShapeGroup" x="0" y="0" width="5000" height="3427"></rect>
        <path d="M2705.35665,1653.00579 C2692.28852,1653.00579 2679.79123,1655.20558 2668.04826,1659.15705 C2658.95561,1639.05342 2648.33394,1615.48716 2635.89781,1587.82684 L2643.86916,1566.03263 L2671.10632,1565.56416 L2671.10632,1542.75153 L2568.49806,1542.75153 C2559.50735,1555.03368 2572.10658,1554.99295 2617.54942,1565.05495 L2609.61884,1587.338 L2599.42529,1611.94305 L2542.056,1765.88758 L2400.99768,1612.28932 L2406.88955,1587.338 C2420.50813,1539.67589 2412.80181,1543.15889 2474.2689,1543.26074 L2474.2689,1520 C2389.64206,1520.81474 2404.30039,1511.30268 2359.00026,1656.93689 C2352.06865,1655.65368 2344.91277,1654.92042 2337.59381,1654.92042 C2273.33368,1654.92042 2221,1707.20616 2221,1771.40742 C2221,1835.64942 2273.33368,1887.95553 2337.59381,1887.95553 C2401.89471,1887.95553 2454.22839,1835.64942 2454.22839,1771.40742 C2454.22839,1723.35832 2424.89135,1681.99005 2383.24052,1664.22879 C2385.76852,1656.24437 2388.48,1647.75074 2391.43613,1638.64605 C2561.99458,1818.41774 2498.01987,1789.27053 2589.80258,1792.89611 L2591.10735,1792.89611 C2601.9329,1845.97621 2649.04748,1886.00016 2705.35665,1886.00016 C2769.61677,1886.00016 2821.93006,1833.75516 2821.93006,1769.53353 C2821.93006,1705.27116 2769.61677,1653.00579 2705.35665,1653.00579 L2705.35665,1653.00579 Z M2426.93006,1771.40742 C2426.93006,1820.65826 2386.84903,1860.66184 2337.61419,1860.66184 C2288.37935,1860.66184 2248.29832,1820.65826 2248.29832,1771.40742 C2248.29832,1722.23805 2288.35897,1682.19374 2337.59381,1682.19374 C2342.05858,1682.19374 2346.42142,1682.54 2350.70271,1683.15105 C2322.22194,1772.79247 2325.64697,1762.58789 2325.48387,1770.16495 C2325.32077,1776.51989 2330.45832,1781.57126 2336.96181,1782.03974 C2348.58245,1780.838 2345.95252,1782.79337 2374.96335,1690.40221 C2405.60516,1704.53789 2426.93006,1735.51826 2426.93006,1771.40742 L2426.93006,1771.40742 Z M2588.72206,1769.12616 L2567.05058,1769.04468 L2623.31897,1621.41437 L2645.17394,1669.769 C2611.49445,1690.09668 2588.88516,1727.00426 2588.72206,1769.12616 L2588.72206,1769.12616 Z M2616.04077,1769.16689 C2616.12232,1738.08468 2632.24852,1710.72989 2656.48877,1694.84253 L2690.16826,1769.41132 L2616.04077,1769.16689 L2616.04077,1769.16689 Z M2705.35665,1858.76758 C2664.13394,1858.76758 2629.37394,1830.761 2619.09884,1792.77389 C2712.08439,1792.89611 2720.36155,1797.62158 2721.66632,1781.51016 C2721.56439,1776.80505 2719.8111,1773.58684 2679.34271,1684.16947 C2687.55871,1681.64379 2696.264,1680.25874 2705.35665,1680.25874 C2754.5711,1680.25874 2794.61135,1720.28268 2794.61135,1769.53353 C2794.61135,1818.70289 2754.5711,1858.76758 2705.35665,1858.76758 L2705.35665,1858.76758 Z" id="Imported-Layers" opacity="0.0487406716" fill="#BDBDBD" sketch:type="MSShapeGroup" transform="translate(2537.000000, 1713.500000) scale(-1, 1) translate(-2537.000000, -1713.500000) "></path>
    </g>
</svg>