<?xml version="1.0" encoding="UTF-8" standalone="no"?>
<svg width="18px" height="18px" viewBox="0 0 18 18" version="1.1" xmlns="http://www.w3.org/2000/svg" xmlns:xlink="http://www.w3.org/1999/xlink" xmlns:sketch="http://www.bohemiancoding.com/sketch/ns">
    <!-- Generator: Sketch 3.1.1 (8761) - http://www.bohemiancoding.com/sketch -->
    <title>icon-roundtrip</title>
    <desc>Created with Sketch.</desc>
    <defs></defs>
    <g id="Page-1" stroke="none" stroke-width="1" fill="none" fill-rule="evenodd" sketch:type="MSPage">
        <g id="Rectangle-18-+-Rectangle-20" sketch:type="MSLayerGroup" transform="translate(1.000000, 1.000000)" fill="#CCCCCC">
            <path d="M5.36979184,5.03706241 L4.75234278,5.65451147 C4.35892804,6.04792621 4.35947571,6.68054352 4.75,7.07106781 C5.14324696,7.46431477 5.77473817,7.46054321 6.16655634,7.06872503 L8.06872503,5.16655634 C8.41187632,4.82340505 8.06872503,5.16655634 8.06872503,5.16655634 C8.82477593,4.50011901 8.88072549,3.34819374 8.06872503,2.65451147 C8.06872503,2.65451147 8.41187632,2.99766276 8.06872503,2.65451147 L6.16655634,0.75234278 C5.77473817,0.360524607 5.14324696,0.356753045 4.75,0.75 C4.35947571,1.14052429 4.35892804,1.7731416 4.75234278,2.16655634 L5.62284885,3.03706241 L4.01735232,3.03706241 C1.8113387,3.03706241 0.0191621709,4.82700387 0.0191621709,7.02782472 L0.0191621709,10.0781442 C0.0191621709,12.2805045 1.81070018,14.0689065 4.0110226,14.0689065 L4.99342486,14.0689065 L4.99342486,12.0689065 L4.0110226,12.0689065 C2.91448606,12.0689065 2.01916217,11.1751499 2.01916217,10.0781442 L2.01916217,7.02782472 C2.01916217,5.93213246 2.91534988,5.03706241 4.01735232,5.03706241 L5.36979184,5.03706241 Z" id="Rectangle-18" sketch:type="MSShapeGroup"></path>
            <path d="M10.4594322,12.0689065 L11.3617824,11.1665563 C11.7551972,10.7731416 11.7546495,10.1405243 11.3641252,9.75 C10.9708782,9.35675304 10.339387,9.36052461 9.94756885,9.75234278 L8.04540016,11.6545115 C7.70224887,11.9976628 8.04540016,11.6545115 8.04540016,11.6545115 C7.28934927,12.3209488 7.2333997,13.4728741 8.04540016,14.1665563 C8.04540016,14.1665563 7.70224887,13.8234051 8.04540016,14.1665563 L9.94756885,16.068725 C10.339387,16.4605432 10.9708782,16.4643148 11.3641252,16.0710678 C11.7546495,15.6805435 11.7551972,15.0479262 11.3617824,14.6545115 L10.7761775,14.0689065 L11.9952347,14.0689065 C14.2012483,14.0689065 15.9934249,12.2789651 15.9934249,10.0781442 L15.9934249,7.02782472 C15.9934249,4.82546445 14.2018868,3.03706241 12.0015644,3.03706241 L11.0191622,3.03706241 L11.0191622,5.03706241 L12.0015644,5.03706241 C13.098101,5.03706241 13.9934249,5.93081909 13.9934249,7.02782472 L13.9934249,10.0781442 C13.9934249,11.1738365 13.0972371,12.0689065 11.9952347,12.0689065 L10.4594322,12.0689065 Z" id="Rectangle-19" sketch:type="MSShapeGroup"></path>
        </g>
    </g>
</svg>