<?xml version="1.0" encoding="UTF-8" standalone="no"?>
<svg width="11px" height="11px" viewBox="0 0 11 11" version="1.1" xmlns="http://www.w3.org/2000/svg" xmlns:xlink="http://www.w3.org/1999/xlink" xmlns:sketch="http://www.bohemiancoding.com/sketch/ns">
    <!-- Generator: Sketch 3.1.1 (8761) - http://www.bohemiancoding.com/sketch -->
    <title>icon-distance</title>
    <desc>Created with Sketch.</desc>
    <defs></defs>
    <g id="Page-1" stroke="none" stroke-width="1" fill="none" fill-rule="evenodd" sketch:type="MSPage">
        <g id="distance-2" sketch:type="MSLayerGroup" transform="translate(1.000000, 1.000000)">
            <path d="M1.51358867,9.50367308 C2.06587342,9.50367308 2.51358867,9.05595783 2.51358867,8.50367308 C2.51358867,7.95138833 2.06587342,7.50367308 1.51358867,7.50367308 C0.961303917,7.50367308 0.513588667,7.95138833 0.513588667,8.50367308 C0.513588667,9.05595783 0.961303917,9.50367308 1.51358867,9.50367308 Z" id="Oval-18" fill="#CCCCCC" sketch:type="MSShapeGroup"></path>
            <path d="M7.51358867,1.53863189 C8.06587342,1.53863189 8.51358867,1.09091664 8.51358867,0.53863189 C8.51358867,-0.0136528598 8.06587342,-0.46136811 7.51358867,-0.46136811 C6.96130392,-0.46136811 6.51358867,-0.0136528598 6.51358867,0.53863189 C6.51358867,1.09091664 6.96130392,1.53863189 7.51358867,1.53863189 Z" id="Oval-19" fill="#CCCCCC" sketch:type="MSShapeGroup"></path>
            <g id="Oval-18-+-Oval-19-+-Path-23" transform="translate(0.000000, 1.000000)" stroke="#CCCCCC" sketch:type="MSShapeGroup">
                <path d="M7.46762176,-0.443363873 L2.49664075,-0.483770359 C1.39392651,-0.492733742 0.5,0.387729645 0.5,1.5 L0.5,1.5 C0.5,2.6045695 1.38670635,3.5 2.49810135,3.5 L6.50189865,3.5 C7.60541955,3.5 8.5,4.38739778 8.5,5.49925232 L8.5,5.49925232 C8.5,6.60340889 7.61344516,7.49869403 6.49408095,7.49893315 L1.5,7.5" id="Path-23"></path>
            </g>
        </g>
    </g>
</svg>