<?xml version="1.0" encoding="UTF-8" standalone="no"?>
<svg width="22px" height="22px" viewBox="0 0 22 22" version="1.1" xmlns="http://www.w3.org/2000/svg" xmlns:xlink="http://www.w3.org/1999/xlink" xmlns:sketch="http://www.bohemiancoding.com/sketch/ns">
    <!-- Generator: Sketch 3.1.1 (8761) - http://www.bohemiancoding.com/sketch -->
    <title>icon-google</title>
    <desc>Created with Sketch.</desc>
    <defs></defs>
    <g id="Page-1" stroke="none" stroke-width="1" fill="none" fill-rule="evenodd" sketch:type="MSPage">
        <path d="M17.122844,14.5586667 L18.0130527,14.5586667 C18.2513165,14.5586667 18.44469,14.3713333 18.44469,14.1406667 L18.44469,11.1253333 L21.5683627,11.1253333 C21.8059359,11.1253333 22,10.9386667 22,10.7086667 L22,9.85066667 C22,9.62 21.8059359,9.43266667 21.5683627,9.43266667 L18.44469,9.43266667 L18.44469,6.41666667 C18.44469,6.186 18.2513165,6 18.0130527,6 L17.122844,6 C16.8838896,6 16.6898254,6.186 16.6898254,6.41666667 L16.6898254,9.43266667 L13.5654621,9.43266667 C13.3285796,9.43266667 13.1338248,9.62 13.1338248,9.85066667 L13.1338248,10.7086667 C13.1338248,10.9386667 13.3285796,11.1253333 13.5654621,11.1253333 L16.6898254,11.1253333 L16.6898254,14.1406667 C16.6898254,14.3713333 16.8838896,14.5586667 17.122844,14.5586667" id="Fill-8" fill="#FFFFFF" sketch:type="MSShapeGroup"></path>
        <path d="M3.92857266,19.6746667 C4.71933217,19.8673333 5.56879435,19.966 6.45140627,19.966 C7.24423764,19.966 7.99977555,19.8673333 8.69868264,19.672 C10.876897,19.0613333 12.2850705,17.5133333 12.2850705,15.7266667 C12.2850705,14.012 11.7146187,12.9846667 10.1821337,11.938 C9.52535437,11.49 8.92796837,10.8306667 8.91691846,10.6293333 C8.91691846,10.2606667 8.95075882,10.0846667 9.80712719,9.44066667 C10.9148811,8.60333333 11.5240077,7.50266667 11.5240077,6.34133333 C11.5240077,5.288 11.191129,4.352 10.6220584,3.694 L11.0626737,3.694 C11.1545261,3.694 11.2436161,3.66666667 11.3168218,3.61466667 L12.5454341,2.75666667 C12.6980611,2.65 12.7622887,2.46133333 12.7028954,2.28933333 C12.6448834,2.11733333 12.4791347,2 12.2919767,2 L6.7967161,2 C6.19449576,2 5.58398798,2.10333333 4.98522074,2.302 C2.98173311,2.96866667 1.58184706,4.616 1.58184706,6.30733333 C1.58184706,8.70333333 3.50384157,10.52 6.07501856,10.5766667 C6.02460333,10.7673333 5.9990504,10.9533333 5.9990504,11.1366667 C5.9990504,11.5066667 6.09642777,11.856 6.29601685,12.194 L6.22488303,12.194 C3.7752551,12.194 1.56320033,13.356 0.724097446,15.082 C0.503789775,15.5313333 0.39329063,15.986 0.39329063,16.434 C0.39329063,16.87 0.509314733,17.2893333 0.735837981,17.684 C1.26485264,18.594 2.39746888,19.3013333 3.92857266,19.6746667 L3.92857266,19.6746667 Z M4.418222,6.24333333 C4.29943542,5.366 4.49004644,4.57666667 4.94309294,4.07866667 C5.23591568,3.75666667 5.61920959,3.586 6.04808439,3.586 L6.09780901,3.58733333 C7.31191837,3.62133333 8.47285001,4.92866667 8.68763273,6.5 C8.80780055,7.38066667 8.60544899,8.20733333 8.14687754,8.71133333 C7.8540548,9.034 7.47628585,9.20466667 7.02807369,9.20466667 C7.02807369,9.20466667 7.02807369,9.20466667 7.02738307,9.20466667 L7.00804572,9.20466667 C5.81879867,9.16933333 4.63162347,7.81266667 4.418222,6.24333333 L4.418222,6.24333333 Z M6.75320707,13.522 L6.80293168,13.522 C7.21039728,13.5273333 7.60681296,13.586 7.98181944,13.6953333 C8.11027469,13.7813333 8.23458623,13.8633333 8.35406343,13.9413333 C9.22010049,14.5106667 9.79262418,14.8866667 9.95284794,15.4913333 C9.98945078,15.6433333 10.0080975,15.796 10.0080975,15.9426667 C10.0080975,17.4966667 8.80780055,18.284 6.44035636,18.284 C4.64474525,18.284 3.24071548,17.2213333 3.24071548,15.8633333 C3.24071548,14.616 4.88231841,13.522 6.75320707,13.522 L6.75320707,13.522 Z" id="Fill-9" fill="#FFFFFF" sketch:type="MSShapeGroup"></path>
    </g>
</svg>