<?xml version="1.0" encoding="UTF-8" standalone="no"?>
<svg width="43px" height="26px" viewBox="0 0 43 26" version="1.1" xmlns="http://www.w3.org/2000/svg" xmlns:xlink="http://www.w3.org/1999/xlink" xmlns:sketch="http://www.bohemiancoding.com/sketch/ns">
    <!-- Generator: Sketch 3.1.1 (8761) - http://www.bohemiancoding.com/sketch -->
    <title>logo2</title>
    <desc>Created with Sketch.</desc>
    <defs></defs>
    <g id="Page-1" stroke="none" stroke-width="1" fill="none" fill-rule="evenodd" sketch:type="MSPage">
        <path d="M33.884129,9.27947368 C32.9743226,9.27947368 32.1042581,9.43294737 31.2867097,9.70863158 C30.6536774,8.30605263 29.9141935,6.66189474 29.0483871,4.73210526 L29.6033548,3.21157895 L31.4996129,3.17889474 L31.4996129,1.58731579 L24.356,1.58731579 C23.7300645,2.44421053 24.6072258,2.44136842 27.7709677,3.14336842 L27.2188387,4.698 L26.5091613,6.41463158 L22.5150968,17.1549474 L12.6945806,6.43878947 L13.1047742,4.698 C14.0529032,1.37273684 13.5163871,1.61573684 17.7957419,1.62284211 L17.7957419,0 C11.904,0.0568421053 12.9245161,-0.606789474 9.77070968,9.55373684 C9.28812903,9.46421053 8.78993548,9.41305263 8.2803871,9.41305263 C3.80658065,9.41305263 0.163096774,13.0608947 0.163096774,17.5400526 C0.163096774,22.0220526 3.80658065,25.6713158 8.2803871,25.6713158 C12.7570323,25.6713158 16.4005161,22.0220526 16.4005161,17.5400526 C16.4005161,14.1877895 14.3580645,11.3016316 11.4583226,10.0624737 C11.6343226,9.50542105 11.8230968,8.91284211 12.0289032,8.27763158 C23.9032258,20.8198421 19.4492903,18.7863158 25.8392258,19.0392632 L25.9300645,19.0392632 C26.6837419,22.7425263 29.963871,25.5348947 33.884129,25.5348947 C38.3579355,25.5348947 42,21.8898947 42,17.4093158 C42,12.9258947 38.3579355,9.27947368 33.884129,9.27947368 L33.884129,9.27947368 Z M14.5,17.5400526 C14.5,20.9761579 11.7095484,23.7671053 8.28180645,23.7671053 C4.85406452,23.7671053 2.0636129,20.9761579 2.0636129,17.5400526 C2.0636129,14.1096316 4.85264516,11.3158421 8.2803871,11.3158421 C8.59122581,11.3158421 8.89496774,11.34 9.19303226,11.3826316 C7.21019355,17.6366842 7.44864516,16.9247368 7.43729032,17.4533684 C7.42593548,17.8967368 7.7836129,18.2491579 8.2363871,18.2818421 C9.04541935,18.198 8.86232258,18.3344211 10.8820645,11.8885263 C13.0153548,12.8747368 14.5,15.0361579 14.5,17.5400526 L14.5,17.5400526 Z M25.764,17.3808947 L24.2552258,17.3752105 L28.1726452,7.07542105 L29.6941935,10.449 C27.3494194,11.8672105 25.7753548,14.4421579 25.764,17.3808947 L25.764,17.3808947 Z M27.6659355,17.3837368 C27.6716129,15.2152105 28.7943226,13.3067368 30.4819355,12.1983158 L32.8267097,17.4007895 L27.6659355,17.3837368 L27.6659355,17.3837368 Z M33.884129,23.6349474 C31.0141935,23.6349474 28.5941935,21.681 27.8788387,19.0307368 C34.3525161,19.0392632 34.9287742,19.3689474 35.0196129,18.2448947 C35.0125161,17.9166316 34.8904516,17.6921053 32.0730323,11.4536842 C32.6450323,11.2774737 33.2510968,11.1808421 33.884129,11.1808421 C37.3104516,11.1808421 40.0980645,13.9732105 40.0980645,17.4093158 C40.0980645,20.8397368 37.3104516,23.6349474 33.884129,23.6349474 L33.884129,23.6349474 Z" id="Imported-Layers-4" fill="#FFFFFF" sketch:type="MSShapeGroup" transform="translate(21.081548, 12.835658) scale(-1, 1) translate(-21.081548, -12.835658) "></path>
    </g>
</svg>